<mxfile host="app.diagrams.net" modified="2022-12-20T04:13:46.872Z" agent="5.0 (Windows NT 10.0; Win64; x64) AppleWebKit/537.36 (KHTML, like Gecko) Chrome/108.0.0.0 Safari/537.36" etag="LKoIzA8sc1Kh4TTjWWeK" version="20.7.4" type="github">
  <diagram name="Page-1" id="2a216829-ef6e-dabb-86c1-c78162f3ba2b">
    <mxGraphModel dx="-126" dy="1479" grid="1" gridSize="10" guides="1" tooltips="1" connect="1" arrows="1" fold="1" page="1" pageScale="1" pageWidth="850" pageHeight="1100" background="none" math="0" shadow="0">
      <root>
        <mxCell id="0" />
        <mxCell id="1" parent="0" />
        <mxCell id="7a84cebc1def654-1" value="" style="shape=mxgraph.bpmn.shape;html=1;verticalLabelPosition=bottom;labelBackgroundColor=#ffffff;verticalAlign=top;perimeter=ellipsePerimeter;outline=standard;symbol=general;" parent="1" vertex="1">
          <mxGeometry x="1020" y="-200" width="50" height="50" as="geometry" />
        </mxCell>
        <mxCell id="7a84cebc1def654-2" value="Task" style="shape=ext;rounded=1;html=1;whiteSpace=wrap;" parent="1" vertex="1">
          <mxGeometry x="1120" y="-215" width="120" height="80" as="geometry" />
        </mxCell>
        <mxCell id="7a84cebc1def654-3" value="Task" style="shape=ext;rounded=1;html=1;whiteSpace=wrap;" parent="1" vertex="1">
          <mxGeometry x="1290" y="-215" width="120" height="80" as="geometry" />
        </mxCell>
        <mxCell id="7a84cebc1def654-4" value="" style="shape=message;whiteSpace=wrap;html=1;" parent="1" vertex="1">
          <mxGeometry x="1160" y="-290" width="40" height="30" as="geometry" />
        </mxCell>
        <mxCell id="7a84cebc1def654-5" value="" style="shape=message;whiteSpace=wrap;html=1;" parent="1" vertex="1">
          <mxGeometry x="1330" y="-290" width="40" height="30" as="geometry" />
        </mxCell>
        <mxCell id="7a84cebc1def654-6" value="" style="shape=hexagon;whiteSpace=wrap;html=1;perimeter=hexagonPerimeter;" parent="1" vertex="1">
          <mxGeometry x="1320" y="-90" width="60" height="50" as="geometry" />
        </mxCell>
        <mxCell id="7a84cebc1def654-7" value="" style="html=1;shape=plus;" parent="7a84cebc1def654-6" vertex="1">
          <mxGeometry x="0.5" y="1" width="14" height="14" relative="1" as="geometry">
            <mxPoint x="-7" y="-14" as="offset" />
          </mxGeometry>
        </mxCell>
        <mxCell id="7a84cebc1def654-8" value="Task" style="shape=ext;rounded=1;html=1;whiteSpace=wrap;" parent="1" vertex="1">
          <mxGeometry x="1290" y="10" width="120" height="80" as="geometry" />
        </mxCell>
        <mxCell id="7a84cebc1def654-9" value="" style="shape=mxgraph.bpmn.shape;html=1;verticalLabelPosition=bottom;labelBackgroundColor=#ffffff;verticalAlign=top;perimeter=rhombusPerimeter;background=gateway;outline=none;symbol=parallelGw;" parent="1" vertex="1">
          <mxGeometry x="1455" y="25" width="50" height="50" as="geometry" />
        </mxCell>
        <mxCell id="7a84cebc1def654-12" value="Sub-Process" style="html=1;whiteSpace=wrap;rounded=1;" parent="1" vertex="1">
          <mxGeometry x="1730" y="-215" width="120" height="80" as="geometry" />
        </mxCell>
        <mxCell id="7a84cebc1def654-13" value="" style="html=1;shape=plus;" parent="7a84cebc1def654-12" vertex="1">
          <mxGeometry x="0.5" y="1" width="14" height="14" relative="1" as="geometry">
            <mxPoint x="-7" y="-14" as="offset" />
          </mxGeometry>
        </mxCell>
        <mxCell id="7a84cebc1def654-14" value="Receive" style="html=1;whiteSpace=wrap;rounded=1;" parent="1" vertex="1">
          <mxGeometry x="1540" y="-215" width="120" height="80" as="geometry" />
        </mxCell>
        <mxCell id="7a84cebc1def654-15" value="" style="html=1;shape=message;" parent="7a84cebc1def654-14" vertex="1">
          <mxGeometry width="20" height="14" relative="1" as="geometry">
            <mxPoint x="7" y="7" as="offset" />
          </mxGeometry>
        </mxCell>
        <mxCell id="7a84cebc1def654-16" value="Process" style="html=1;whiteSpace=wrap;rounded=1;" parent="1" vertex="1">
          <mxGeometry x="1665" y="10" width="120" height="80" as="geometry" />
        </mxCell>
        <mxCell id="7a84cebc1def654-17" value="" style="shape=mxgraph.bpmn.timer_start;perimeter=ellipsePerimeter;html=1;labelPosition=right;labelBackgroundColor=#ffffff;align=left;" parent="7a84cebc1def654-16" vertex="1">
          <mxGeometry x="1" width="30" height="30" relative="1" as="geometry">
            <mxPoint x="-15" y="10" as="offset" />
          </mxGeometry>
        </mxCell>
        <mxCell id="7a84cebc1def654-18" value="Process" style="html=1;whiteSpace=wrap;rounded=1;" parent="1" vertex="1">
          <mxGeometry x="1980" y="310" width="120" height="80" as="geometry" />
        </mxCell>
        <mxCell id="7a84cebc1def654-19" value="" style="shape=mxgraph.bpmn.timer_start;perimeter=ellipsePerimeter;html=1;labelPosition=right;labelBackgroundColor=#ffffff;align=left;" parent="7a84cebc1def654-18" vertex="1">
          <mxGeometry x="1" width="30" height="30" relative="1" as="geometry">
            <mxPoint x="-15" y="10" as="offset" />
          </mxGeometry>
        </mxCell>
        <mxCell id="7a84cebc1def654-20" value="Receive" style="html=1;whiteSpace=wrap;rounded=1;" parent="1" vertex="1">
          <mxGeometry x="1810" y="310" width="120" height="80" as="geometry" />
        </mxCell>
        <mxCell id="7a84cebc1def654-21" value="" style="html=1;shape=message;" parent="7a84cebc1def654-20" vertex="1">
          <mxGeometry width="20" height="14" relative="1" as="geometry">
            <mxPoint x="7" y="7" as="offset" />
          </mxGeometry>
        </mxCell>
        <mxCell id="7a84cebc1def654-22" value="Sub-Process" style="html=1;whiteSpace=wrap;rounded=1;" parent="1" vertex="1">
          <mxGeometry x="1665" y="310" width="120" height="80" as="geometry" />
        </mxCell>
        <mxCell id="7a84cebc1def654-23" value="" style="html=1;shape=plus;" parent="7a84cebc1def654-22" vertex="1">
          <mxGeometry x="0.5" y="1" width="14" height="14" relative="1" as="geometry">
            <mxPoint x="-7" y="-14" as="offset" />
          </mxGeometry>
        </mxCell>
        <mxCell id="7a84cebc1def654-24" value="" style="shape=mxgraph.bpmn.shape;html=1;verticalLabelPosition=bottom;labelBackgroundColor=#ffffff;verticalAlign=top;perimeter=rhombusPerimeter;background=gateway;outline=none;symbol=parallelGw;" parent="1" vertex="1">
          <mxGeometry x="2015" y="25" width="50" height="50" as="geometry" />
        </mxCell>
        <mxCell id="7a84cebc1def654-26" value="" style="shape=mxgraph.bpmn.shape;html=1;verticalLabelPosition=bottom;labelBackgroundColor=#ffffff;verticalAlign=top;perimeter=ellipsePerimeter;outline=end;symbol=general;" parent="1" vertex="1">
          <mxGeometry x="2150" y="25.000000000000057" width="50" height="50" as="geometry" />
        </mxCell>
        <mxCell id="7a84cebc1def654-27" value="" style="shape=message;whiteSpace=wrap;html=1;" parent="1" vertex="1">
          <mxGeometry x="1580" y="-290" width="40" height="30" as="geometry" />
        </mxCell>
        <mxCell id="7a84cebc1def654-28" value="" style="shape=message;whiteSpace=wrap;html=1;" parent="1" vertex="1">
          <mxGeometry x="1770" y="-290" width="40" height="30" as="geometry" />
        </mxCell>
        <mxCell id="7a84cebc1def654-29" value="Sub-Process" style="html=1;whiteSpace=wrap;rounded=1;" parent="1" vertex="1">
          <mxGeometry x="1420" y="190" width="120" height="80" as="geometry" />
        </mxCell>
        <mxCell id="7a84cebc1def654-30" value="" style="html=1;shape=plus;" parent="7a84cebc1def654-29" vertex="1">
          <mxGeometry x="0.5" y="1" width="14" height="14" relative="1" as="geometry">
            <mxPoint x="-7" y="-14" as="offset" />
          </mxGeometry>
        </mxCell>
        <mxCell id="7a84cebc1def654-31" value="" style="shape=message;whiteSpace=wrap;html=1;" parent="1" vertex="1">
          <mxGeometry x="1460" y="310" width="40" height="30" as="geometry" />
        </mxCell>
        <mxCell id="7a84cebc1def654-32" value="" style="shape=message;whiteSpace=wrap;html=1;" parent="1" vertex="1">
          <mxGeometry x="1850" y="430" width="40" height="30" as="geometry" />
        </mxCell>
        <mxCell id="7a84cebc1def654-33" value="" style="shape=message;whiteSpace=wrap;html=1;" parent="1" vertex="1">
          <mxGeometry x="2020" y="430" width="40" height="30" as="geometry" />
        </mxCell>
        <mxCell id="7a84cebc1def654-34" value="" style="shape=message;whiteSpace=wrap;html=1;" parent="1" vertex="1">
          <mxGeometry x="1705" y="430" width="40" height="30" as="geometry" />
        </mxCell>
        <mxCell id="7a84cebc1def654-35" value="" style="shape=message;whiteSpace=wrap;html=1;" parent="1" vertex="1">
          <mxGeometry x="1705" y="130" width="40" height="30" as="geometry" />
        </mxCell>
        <mxCell id="7a84cebc1def654-36" style="edgeStyle=orthogonalEdgeStyle;rounded=0;html=1;jettySize=auto;orthogonalLoop=1;" parent="1" source="7a84cebc1def654-1" target="7a84cebc1def654-2" edge="1">
          <mxGeometry relative="1" as="geometry" />
        </mxCell>
        <mxCell id="7a84cebc1def654-37" style="edgeStyle=orthogonalEdgeStyle;rounded=0;html=1;jettySize=auto;orthogonalLoop=1;endArrow=none;endFill=0;" parent="1" source="7a84cebc1def654-4" target="7a84cebc1def654-2" edge="1">
          <mxGeometry relative="1" as="geometry" />
        </mxCell>
        <mxCell id="7a84cebc1def654-38" style="edgeStyle=orthogonalEdgeStyle;rounded=0;html=1;jettySize=auto;orthogonalLoop=1;endArrow=none;endFill=0;" parent="1" source="7a84cebc1def654-5" target="7a84cebc1def654-3" edge="1">
          <mxGeometry relative="1" as="geometry" />
        </mxCell>
        <mxCell id="7a84cebc1def654-39" style="edgeStyle=orthogonalEdgeStyle;rounded=0;html=1;jettySize=auto;orthogonalLoop=1;" parent="1" source="7a84cebc1def654-2" target="7a84cebc1def654-3" edge="1">
          <mxGeometry relative="1" as="geometry" />
        </mxCell>
        <mxCell id="7a84cebc1def654-40" style="edgeStyle=orthogonalEdgeStyle;rounded=0;html=1;jettySize=auto;orthogonalLoop=1;" parent="1" source="7a84cebc1def654-14" target="7a84cebc1def654-12" edge="1">
          <mxGeometry relative="1" as="geometry" />
        </mxCell>
        <mxCell id="7a84cebc1def654-41" style="edgeStyle=orthogonalEdgeStyle;rounded=0;html=1;jettySize=auto;orthogonalLoop=1;endArrow=none;endFill=0;" parent="1" source="7a84cebc1def654-27" target="7a84cebc1def654-14" edge="1">
          <mxGeometry relative="1" as="geometry" />
        </mxCell>
        <mxCell id="7a84cebc1def654-42" style="edgeStyle=orthogonalEdgeStyle;rounded=0;html=1;jettySize=auto;orthogonalLoop=1;endArrow=none;endFill=0;" parent="1" source="7a84cebc1def654-28" target="7a84cebc1def654-12" edge="1">
          <mxGeometry relative="1" as="geometry" />
        </mxCell>
        <mxCell id="7a84cebc1def654-43" style="edgeStyle=orthogonalEdgeStyle;rounded=0;html=1;jettySize=auto;orthogonalLoop=1;" parent="1" source="7a84cebc1def654-12" target="7a84cebc1def654-24" edge="1">
          <mxGeometry relative="1" as="geometry">
            <mxPoint x="2049.9999999999995" y="10" as="targetPoint" />
            <Array as="points">
              <mxPoint x="2040" y="-175" />
            </Array>
          </mxGeometry>
        </mxCell>
        <mxCell id="7a84cebc1def654-44" style="edgeStyle=orthogonalEdgeStyle;rounded=0;html=1;jettySize=auto;orthogonalLoop=1;" parent="1" source="7a84cebc1def654-16" target="7a84cebc1def654-24" edge="1">
          <mxGeometry relative="1" as="geometry" />
        </mxCell>
        <mxCell id="7a84cebc1def654-45" style="edgeStyle=orthogonalEdgeStyle;rounded=0;html=1;jettySize=auto;orthogonalLoop=1;" parent="1" source="7a84cebc1def654-18" target="7a84cebc1def654-24" edge="1">
          <mxGeometry relative="1" as="geometry" />
        </mxCell>
        <mxCell id="7a84cebc1def654-46" style="edgeStyle=orthogonalEdgeStyle;rounded=0;html=1;jettySize=auto;orthogonalLoop=1;" parent="1" source="7a84cebc1def654-24" target="7a84cebc1def654-26" edge="1">
          <mxGeometry relative="1" as="geometry" />
        </mxCell>
        <mxCell id="7a84cebc1def654-47" style="edgeStyle=orthogonalEdgeStyle;rounded=0;html=1;jettySize=auto;orthogonalLoop=1;" parent="1" source="7a84cebc1def654-3" target="7a84cebc1def654-6" edge="1">
          <mxGeometry relative="1" as="geometry" />
        </mxCell>
        <mxCell id="7a84cebc1def654-48" style="edgeStyle=orthogonalEdgeStyle;rounded=0;html=1;jettySize=auto;orthogonalLoop=1;" parent="1" source="7a84cebc1def654-6" target="7a84cebc1def654-8" edge="1">
          <mxGeometry relative="1" as="geometry" />
        </mxCell>
        <mxCell id="7a84cebc1def654-49" style="edgeStyle=orthogonalEdgeStyle;rounded=0;html=1;jettySize=auto;orthogonalLoop=1;" parent="1" source="7a84cebc1def654-8" target="7a84cebc1def654-9" edge="1">
          <mxGeometry relative="1" as="geometry" />
        </mxCell>
        <mxCell id="7a84cebc1def654-50" style="edgeStyle=orthogonalEdgeStyle;rounded=0;html=1;jettySize=auto;orthogonalLoop=1;" parent="1" source="7a84cebc1def654-9" target="7a84cebc1def654-14" edge="1">
          <mxGeometry relative="1" as="geometry">
            <Array as="points">
              <mxPoint x="1480" y="-175" />
            </Array>
          </mxGeometry>
        </mxCell>
        <mxCell id="7a84cebc1def654-51" style="edgeStyle=orthogonalEdgeStyle;rounded=0;html=1;jettySize=auto;orthogonalLoop=1;" parent="1" source="7a84cebc1def654-9" target="7a84cebc1def654-29" edge="1">
          <mxGeometry relative="1" as="geometry" />
        </mxCell>
        <mxCell id="7a84cebc1def654-52" style="edgeStyle=orthogonalEdgeStyle;rounded=0;html=1;jettySize=auto;orthogonalLoop=1;endArrow=none;endFill=0;" parent="1" source="7a84cebc1def654-31" target="7a84cebc1def654-29" edge="1">
          <mxGeometry relative="1" as="geometry" />
        </mxCell>
        <mxCell id="7a84cebc1def654-53" value="" style="shape=mxgraph.bpmn.shape;html=1;verticalLabelPosition=bottom;labelBackgroundColor=#ffffff;verticalAlign=top;perimeter=rhombusPerimeter;background=gateway;outline=none;symbol=parallelGw;" parent="1" vertex="1">
          <mxGeometry x="1590" y="205" width="50" height="50" as="geometry" />
        </mxCell>
        <mxCell id="7a84cebc1def654-54" style="edgeStyle=orthogonalEdgeStyle;rounded=0;html=1;jettySize=auto;orthogonalLoop=1;" parent="1" source="7a84cebc1def654-53" target="7a84cebc1def654-22" edge="1">
          <mxGeometry relative="1" as="geometry">
            <Array as="points">
              <mxPoint x="1615" y="350" />
            </Array>
          </mxGeometry>
        </mxCell>
        <mxCell id="7a84cebc1def654-55" style="edgeStyle=orthogonalEdgeStyle;rounded=0;html=1;jettySize=auto;orthogonalLoop=1;" parent="1" source="7a84cebc1def654-53" target="7a84cebc1def654-16" edge="1">
          <mxGeometry relative="1" as="geometry">
            <Array as="points">
              <mxPoint x="1615" y="50" />
            </Array>
          </mxGeometry>
        </mxCell>
        <mxCell id="7a84cebc1def654-56" style="edgeStyle=orthogonalEdgeStyle;rounded=0;html=1;jettySize=auto;orthogonalLoop=1;endArrow=none;endFill=0;" parent="1" source="7a84cebc1def654-35" target="7a84cebc1def654-16" edge="1">
          <mxGeometry relative="1" as="geometry" />
        </mxCell>
        <mxCell id="7a84cebc1def654-58" style="edgeStyle=orthogonalEdgeStyle;rounded=0;html=1;jettySize=auto;orthogonalLoop=1;" parent="1" source="7a84cebc1def654-29" target="7a84cebc1def654-53" edge="1">
          <mxGeometry relative="1" as="geometry" />
        </mxCell>
        <mxCell id="7a84cebc1def654-59" style="edgeStyle=orthogonalEdgeStyle;rounded=0;html=1;jettySize=auto;orthogonalLoop=1;" parent="1" source="7a84cebc1def654-22" target="7a84cebc1def654-20" edge="1">
          <mxGeometry relative="1" as="geometry" />
        </mxCell>
        <mxCell id="7a84cebc1def654-60" style="edgeStyle=orthogonalEdgeStyle;rounded=0;html=1;jettySize=auto;orthogonalLoop=1;endArrow=none;endFill=0;" parent="1" source="7a84cebc1def654-34" target="7a84cebc1def654-22" edge="1">
          <mxGeometry relative="1" as="geometry" />
        </mxCell>
        <mxCell id="7a84cebc1def654-61" style="edgeStyle=orthogonalEdgeStyle;rounded=0;html=1;jettySize=auto;orthogonalLoop=1;endArrow=none;endFill=0;" parent="1" source="7a84cebc1def654-32" target="7a84cebc1def654-20" edge="1">
          <mxGeometry relative="1" as="geometry" />
        </mxCell>
        <mxCell id="7a84cebc1def654-63" style="edgeStyle=orthogonalEdgeStyle;rounded=0;html=1;jettySize=auto;orthogonalLoop=1;endArrow=none;endFill=0;" parent="1" source="7a84cebc1def654-33" target="7a84cebc1def654-18" edge="1">
          <mxGeometry relative="1" as="geometry" />
        </mxCell>
        <mxCell id="7a84cebc1def654-64" style="edgeStyle=orthogonalEdgeStyle;rounded=0;html=1;jettySize=auto;orthogonalLoop=1;" parent="1" source="7a84cebc1def654-20" target="7a84cebc1def654-18" edge="1">
          <mxGeometry relative="1" as="geometry" />
        </mxCell>
        <mxCell id="xkKsstSFWAPBtp9P2067-1" value="Pool" style="swimlane;childLayout=stackLayout;resizeParent=1;resizeParentMax=0;horizontal=0;startSize=20;horizontalStack=0;html=1;" vertex="1" parent="1">
          <mxGeometry x="1040" y="590" width="870" height="510" as="geometry" />
        </mxCell>
        <mxCell id="xkKsstSFWAPBtp9P2067-2" value="Employee" style="swimlane;startSize=20;horizontal=0;html=1;" vertex="1" parent="xkKsstSFWAPBtp9P2067-1">
          <mxGeometry x="20" width="850" height="120" as="geometry" />
        </mxCell>
        <mxCell id="xkKsstSFWAPBtp9P2067-15" value="" style="ellipse;whiteSpace=wrap;html=1;aspect=fixed;" vertex="1" parent="xkKsstSFWAPBtp9P2067-2">
          <mxGeometry x="40" y="40" width="30" height="30" as="geometry" />
        </mxCell>
        <mxCell id="xkKsstSFWAPBtp9P2067-18" style="edgeStyle=orthogonalEdgeStyle;rounded=0;orthogonalLoop=1;jettySize=auto;html=1;entryX=0;entryY=0.5;entryDx=0;entryDy=0;" edge="1" parent="xkKsstSFWAPBtp9P2067-2" source="xkKsstSFWAPBtp9P2067-16" target="xkKsstSFWAPBtp9P2067-17">
          <mxGeometry relative="1" as="geometry" />
        </mxCell>
        <mxCell id="xkKsstSFWAPBtp9P2067-16" value="Login" style="rounded=1;whiteSpace=wrap;html=1;absoluteArcSize=1;arcSize=14;strokeWidth=2;" vertex="1" parent="xkKsstSFWAPBtp9P2067-2">
          <mxGeometry x="110" y="30" width="60" height="50" as="geometry" />
        </mxCell>
        <mxCell id="xkKsstSFWAPBtp9P2067-14" style="edgeStyle=orthogonalEdgeStyle;rounded=0;orthogonalLoop=1;jettySize=auto;html=1;entryX=0;entryY=0.5;entryDx=0;entryDy=0;" edge="1" source="xkKsstSFWAPBtp9P2067-15" target="xkKsstSFWAPBtp9P2067-16" parent="xkKsstSFWAPBtp9P2067-2">
          <mxGeometry relative="1" as="geometry" />
        </mxCell>
        <mxCell id="xkKsstSFWAPBtp9P2067-17" value="Input rent asset" style="rounded=1;whiteSpace=wrap;html=1;absoluteArcSize=1;arcSize=14;strokeWidth=2;" vertex="1" parent="xkKsstSFWAPBtp9P2067-2">
          <mxGeometry x="215" y="30" width="80" height="50" as="geometry" />
        </mxCell>
        <mxCell id="xkKsstSFWAPBtp9P2067-63" style="edgeStyle=orthogonalEdgeStyle;rounded=0;orthogonalLoop=1;jettySize=auto;html=1;entryX=0;entryY=0.5;entryDx=0;entryDy=0;startArrow=none;startFill=0;" edge="1" parent="xkKsstSFWAPBtp9P2067-2" source="xkKsstSFWAPBtp9P2067-59" target="xkKsstSFWAPBtp9P2067-62">
          <mxGeometry relative="1" as="geometry" />
        </mxCell>
        <mxCell id="xkKsstSFWAPBtp9P2067-59" value="Rent rejected" style="rounded=1;whiteSpace=wrap;html=1;absoluteArcSize=1;arcSize=14;strokeWidth=2;" vertex="1" parent="xkKsstSFWAPBtp9P2067-2">
          <mxGeometry x="430" y="30" width="80" height="50" as="geometry" />
        </mxCell>
        <mxCell id="xkKsstSFWAPBtp9P2067-62" value="" style="ellipse;whiteSpace=wrap;html=1;aspect=fixed;strokeWidth=3;" vertex="1" parent="xkKsstSFWAPBtp9P2067-2">
          <mxGeometry x="550" y="40" width="30" height="30" as="geometry" />
        </mxCell>
        <mxCell id="xkKsstSFWAPBtp9P2067-3" value="Admin" style="swimlane;startSize=20;horizontal=0;html=1;" vertex="1" parent="xkKsstSFWAPBtp9P2067-1">
          <mxGeometry x="20" y="120" width="850" height="270" as="geometry" />
        </mxCell>
        <mxCell id="xkKsstSFWAPBtp9P2067-12" value="" style="ellipse;whiteSpace=wrap;html=1;aspect=fixed;" vertex="1" parent="xkKsstSFWAPBtp9P2067-3">
          <mxGeometry x="40" y="40" width="30" height="30" as="geometry" />
        </mxCell>
        <mxCell id="xkKsstSFWAPBtp9P2067-33" style="edgeStyle=orthogonalEdgeStyle;rounded=0;orthogonalLoop=1;jettySize=auto;html=1;entryX=0;entryY=0.5;entryDx=0;entryDy=0;entryPerimeter=0;startArrow=none;startFill=0;" edge="1" parent="xkKsstSFWAPBtp9P2067-3" source="xkKsstSFWAPBtp9P2067-13">
          <mxGeometry relative="1" as="geometry">
            <mxPoint x="205" y="55" as="targetPoint" />
          </mxGeometry>
        </mxCell>
        <mxCell id="xkKsstSFWAPBtp9P2067-13" value="Login" style="rounded=1;whiteSpace=wrap;html=1;absoluteArcSize=1;arcSize=14;strokeWidth=2;" vertex="1" parent="xkKsstSFWAPBtp9P2067-3">
          <mxGeometry x="110" y="30" width="60" height="50" as="geometry" />
        </mxCell>
        <mxCell id="xkKsstSFWAPBtp9P2067-11" style="edgeStyle=orthogonalEdgeStyle;rounded=0;orthogonalLoop=1;jettySize=auto;html=1;entryX=0;entryY=0.5;entryDx=0;entryDy=0;" edge="1" source="xkKsstSFWAPBtp9P2067-12" target="xkKsstSFWAPBtp9P2067-13" parent="xkKsstSFWAPBtp9P2067-3">
          <mxGeometry relative="1" as="geometry" />
        </mxCell>
        <mxCell id="xkKsstSFWAPBtp9P2067-23" style="edgeStyle=orthogonalEdgeStyle;rounded=0;orthogonalLoop=1;jettySize=auto;html=1;entryX=0;entryY=0.5;entryDx=0;entryDy=0;startArrow=none;startFill=0;" edge="1" parent="xkKsstSFWAPBtp9P2067-3" source="xkKsstSFWAPBtp9P2067-19">
          <mxGeometry relative="1" as="geometry">
            <mxPoint x="445" y="55" as="targetPoint" />
          </mxGeometry>
        </mxCell>
        <mxCell id="xkKsstSFWAPBtp9P2067-19" value="Review rent asset request" style="rounded=1;whiteSpace=wrap;html=1;absoluteArcSize=1;arcSize=14;strokeWidth=2;" vertex="1" parent="xkKsstSFWAPBtp9P2067-3">
          <mxGeometry x="310" y="30" width="80" height="50" as="geometry" />
        </mxCell>
        <mxCell id="xkKsstSFWAPBtp9P2067-25" style="edgeStyle=orthogonalEdgeStyle;rounded=0;orthogonalLoop=1;jettySize=auto;html=1;entryX=0;entryY=0.5;entryDx=0;entryDy=0;startArrow=none;startFill=0;" edge="1" parent="xkKsstSFWAPBtp9P2067-3" target="xkKsstSFWAPBtp9P2067-24">
          <mxGeometry relative="1" as="geometry">
            <mxPoint x="490.0000000000002" y="55" as="sourcePoint" />
          </mxGeometry>
        </mxCell>
        <mxCell id="xkKsstSFWAPBtp9P2067-42" style="edgeStyle=orthogonalEdgeStyle;rounded=0;orthogonalLoop=1;jettySize=auto;html=1;entryX=0;entryY=0.5;entryDx=0;entryDy=0;startArrow=none;startFill=0;" edge="1" parent="xkKsstSFWAPBtp9P2067-3" source="xkKsstSFWAPBtp9P2067-24" target="xkKsstSFWAPBtp9P2067-41">
          <mxGeometry relative="1" as="geometry" />
        </mxCell>
        <mxCell id="xkKsstSFWAPBtp9P2067-24" value="Approve rent asset request" style="rounded=1;whiteSpace=wrap;html=1;absoluteArcSize=1;arcSize=14;strokeWidth=2;" vertex="1" parent="xkKsstSFWAPBtp9P2067-3">
          <mxGeometry x="545" y="30" width="80" height="50" as="geometry" />
        </mxCell>
        <mxCell id="xkKsstSFWAPBtp9P2067-26" value="Insert submission aset" style="rounded=1;whiteSpace=wrap;html=1;absoluteArcSize=1;arcSize=14;strokeWidth=2;" vertex="1" parent="xkKsstSFWAPBtp9P2067-3">
          <mxGeometry x="190" y="120" width="80" height="50" as="geometry" />
        </mxCell>
        <mxCell id="xkKsstSFWAPBtp9P2067-34" style="edgeStyle=orthogonalEdgeStyle;rounded=0;orthogonalLoop=1;jettySize=auto;html=1;entryX=0;entryY=0.5;entryDx=0;entryDy=0;startArrow=none;startFill=0;" edge="1" parent="xkKsstSFWAPBtp9P2067-3" target="xkKsstSFWAPBtp9P2067-19">
          <mxGeometry relative="1" as="geometry">
            <mxPoint x="255" y="55" as="sourcePoint" />
          </mxGeometry>
        </mxCell>
        <mxCell id="xkKsstSFWAPBtp9P2067-35" style="edgeStyle=orthogonalEdgeStyle;rounded=0;orthogonalLoop=1;jettySize=auto;html=1;entryX=0.5;entryY=0;entryDx=0;entryDy=0;startArrow=none;startFill=0;" edge="1" parent="xkKsstSFWAPBtp9P2067-3" target="xkKsstSFWAPBtp9P2067-26">
          <mxGeometry relative="1" as="geometry">
            <mxPoint x="230" y="80" as="sourcePoint" />
          </mxGeometry>
        </mxCell>
        <mxCell id="xkKsstSFWAPBtp9P2067-36" value="" style="points=[[0.25,0.25,0],[0.5,0,0],[0.75,0.25,0],[1,0.5,0],[0.75,0.75,0],[0.5,1,0],[0.25,0.75,0],[0,0.5,0]];shape=mxgraph.bpmn.gateway2;html=1;verticalLabelPosition=bottom;labelBackgroundColor=#ffffff;verticalAlign=top;align=center;perimeter=rhombusPerimeter;outlineConnect=0;outline=none;symbol=none;gwType=exclusive;" vertex="1" parent="xkKsstSFWAPBtp9P2067-3">
          <mxGeometry x="450" y="30" width="50" height="50" as="geometry" />
        </mxCell>
        <mxCell id="xkKsstSFWAPBtp9P2067-39" value="" style="points=[[0.25,0.25,0],[0.5,0,0],[0.75,0.25,0],[1,0.5,0],[0.75,0.75,0],[0.5,1,0],[0.25,0.75,0],[0,0.5,0]];shape=mxgraph.bpmn.gateway2;html=1;verticalLabelPosition=bottom;labelBackgroundColor=#ffffff;verticalAlign=top;align=center;perimeter=rhombusPerimeter;outlineConnect=0;outline=end;symbol=general;" vertex="1" parent="xkKsstSFWAPBtp9P2067-3">
          <mxGeometry x="205" y="30" width="50" height="50" as="geometry" />
        </mxCell>
        <mxCell id="xkKsstSFWAPBtp9P2067-41" value="" style="ellipse;whiteSpace=wrap;html=1;aspect=fixed;strokeWidth=3;" vertex="1" parent="xkKsstSFWAPBtp9P2067-3">
          <mxGeometry x="680" y="40" width="30" height="30" as="geometry" />
        </mxCell>
        <mxCell id="xkKsstSFWAPBtp9P2067-69" value="Rent rejected" style="rounded=1;whiteSpace=wrap;html=1;absoluteArcSize=1;arcSize=14;strokeWidth=2;" vertex="1" parent="xkKsstSFWAPBtp9P2067-3">
          <mxGeometry x="385" y="184" width="80" height="50" as="geometry" />
        </mxCell>
        <mxCell id="xkKsstSFWAPBtp9P2067-70" value="" style="ellipse;whiteSpace=wrap;html=1;aspect=fixed;strokeWidth=3;" vertex="1" parent="xkKsstSFWAPBtp9P2067-3">
          <mxGeometry x="540" y="194" width="30" height="30" as="geometry" />
        </mxCell>
        <mxCell id="xkKsstSFWAPBtp9P2067-68" style="edgeStyle=orthogonalEdgeStyle;rounded=0;orthogonalLoop=1;jettySize=auto;html=1;entryX=0;entryY=0.5;entryDx=0;entryDy=0;startArrow=none;startFill=0;exitX=1;exitY=0.5;exitDx=0;exitDy=0;" edge="1" source="xkKsstSFWAPBtp9P2067-69" target="xkKsstSFWAPBtp9P2067-70" parent="xkKsstSFWAPBtp9P2067-3">
          <mxGeometry relative="1" as="geometry">
            <mxPoint x="470" y="209" as="sourcePoint" />
          </mxGeometry>
        </mxCell>
        <mxCell id="xkKsstSFWAPBtp9P2067-72" style="edgeStyle=orthogonalEdgeStyle;rounded=0;orthogonalLoop=1;jettySize=auto;html=1;entryX=0;entryY=0.5;entryDx=0;entryDy=0;startArrow=none;startFill=0;" edge="1" source="xkKsstSFWAPBtp9P2067-73" target="xkKsstSFWAPBtp9P2067-75" parent="xkKsstSFWAPBtp9P2067-3">
          <mxGeometry relative="1" as="geometry" />
        </mxCell>
        <mxCell id="xkKsstSFWAPBtp9P2067-73" value="Approve rent asset request" style="rounded=1;whiteSpace=wrap;html=1;absoluteArcSize=1;arcSize=14;strokeWidth=2;" vertex="1" parent="xkKsstSFWAPBtp9P2067-3">
          <mxGeometry x="495" y="304" width="80" height="50" as="geometry" />
        </mxCell>
        <mxCell id="xkKsstSFWAPBtp9P2067-79" style="edgeStyle=orthogonalEdgeStyle;rounded=0;orthogonalLoop=1;jettySize=auto;html=1;entryX=0;entryY=0.5;entryDx=0;entryDy=0;startArrow=none;startFill=0;" edge="1" parent="xkKsstSFWAPBtp9P2067-3" source="xkKsstSFWAPBtp9P2067-74" target="xkKsstSFWAPBtp9P2067-73">
          <mxGeometry relative="1" as="geometry" />
        </mxCell>
        <mxCell id="xkKsstSFWAPBtp9P2067-74" value="" style="points=[[0.25,0.25,0],[0.5,0,0],[0.75,0.25,0],[1,0.5,0],[0.75,0.75,0],[0.5,1,0],[0.25,0.75,0],[0,0.5,0]];shape=mxgraph.bpmn.gateway2;html=1;verticalLabelPosition=bottom;labelBackgroundColor=#ffffff;verticalAlign=top;align=center;perimeter=rhombusPerimeter;outlineConnect=0;outline=none;symbol=none;gwType=exclusive;" vertex="1" parent="xkKsstSFWAPBtp9P2067-3">
          <mxGeometry x="400" y="304" width="50" height="50" as="geometry" />
        </mxCell>
        <mxCell id="xkKsstSFWAPBtp9P2067-75" value="" style="ellipse;whiteSpace=wrap;html=1;aspect=fixed;strokeWidth=3;" vertex="1" parent="xkKsstSFWAPBtp9P2067-3">
          <mxGeometry x="630" y="314" width="30" height="30" as="geometry" />
        </mxCell>
        <mxCell id="xkKsstSFWAPBtp9P2067-76" style="edgeStyle=orthogonalEdgeStyle;rounded=0;orthogonalLoop=1;jettySize=auto;html=1;entryX=0.5;entryY=1;entryDx=0;entryDy=0;startArrow=none;startFill=0;dashed=1;" edge="1" source="xkKsstSFWAPBtp9P2067-74" target="xkKsstSFWAPBtp9P2067-69" parent="xkKsstSFWAPBtp9P2067-3">
          <mxGeometry relative="1" as="geometry">
            <mxPoint x="425.68000000000006" y="236.44999999999982" as="targetPoint" />
          </mxGeometry>
        </mxCell>
        <mxCell id="xkKsstSFWAPBtp9P2067-4" value="Finance" style="swimlane;startSize=20;horizontal=0;html=1;" vertex="1" parent="xkKsstSFWAPBtp9P2067-1">
          <mxGeometry x="20" y="390" width="850" height="120" as="geometry" />
        </mxCell>
        <mxCell id="xkKsstSFWAPBtp9P2067-10" style="edgeStyle=orthogonalEdgeStyle;rounded=0;orthogonalLoop=1;jettySize=auto;html=1;entryX=0;entryY=0.5;entryDx=0;entryDy=0;" edge="1" parent="xkKsstSFWAPBtp9P2067-4" source="xkKsstSFWAPBtp9P2067-6" target="xkKsstSFWAPBtp9P2067-9">
          <mxGeometry relative="1" as="geometry" />
        </mxCell>
        <mxCell id="xkKsstSFWAPBtp9P2067-6" value="" style="ellipse;whiteSpace=wrap;html=1;aspect=fixed;" vertex="1" parent="xkKsstSFWAPBtp9P2067-4">
          <mxGeometry x="40" y="45" width="30" height="30" as="geometry" />
        </mxCell>
        <mxCell id="xkKsstSFWAPBtp9P2067-66" style="edgeStyle=orthogonalEdgeStyle;rounded=0;orthogonalLoop=1;jettySize=auto;html=1;entryX=0;entryY=0.5;entryDx=0;entryDy=0;startArrow=none;startFill=0;" edge="1" parent="xkKsstSFWAPBtp9P2067-4" source="xkKsstSFWAPBtp9P2067-9" target="xkKsstSFWAPBtp9P2067-65">
          <mxGeometry relative="1" as="geometry" />
        </mxCell>
        <mxCell id="xkKsstSFWAPBtp9P2067-9" value="Login" style="rounded=1;whiteSpace=wrap;html=1;absoluteArcSize=1;arcSize=14;strokeWidth=2;" vertex="1" parent="xkKsstSFWAPBtp9P2067-4">
          <mxGeometry x="110" y="35" width="80" height="50" as="geometry" />
        </mxCell>
        <mxCell id="xkKsstSFWAPBtp9P2067-65" value="Review submission&amp;nbsp;asset request" style="rounded=1;whiteSpace=wrap;html=1;absoluteArcSize=1;arcSize=14;strokeWidth=2;" vertex="1" parent="xkKsstSFWAPBtp9P2067-4">
          <mxGeometry x="240" y="35" width="100" height="50" as="geometry" />
        </mxCell>
        <mxCell id="xkKsstSFWAPBtp9P2067-21" style="edgeStyle=orthogonalEdgeStyle;rounded=0;orthogonalLoop=1;jettySize=auto;html=1;entryX=0.5;entryY=0;entryDx=0;entryDy=0;dashed=1;startArrow=oval;startFill=0;" edge="1" parent="xkKsstSFWAPBtp9P2067-1" source="xkKsstSFWAPBtp9P2067-17" target="xkKsstSFWAPBtp9P2067-19">
          <mxGeometry relative="1" as="geometry" />
        </mxCell>
        <mxCell id="xkKsstSFWAPBtp9P2067-61" style="edgeStyle=orthogonalEdgeStyle;rounded=0;orthogonalLoop=1;jettySize=auto;html=1;entryX=0.571;entryY=1.049;entryDx=0;entryDy=0;entryPerimeter=0;startArrow=none;startFill=0;dashed=1;" edge="1" parent="xkKsstSFWAPBtp9P2067-1" source="xkKsstSFWAPBtp9P2067-36" target="xkKsstSFWAPBtp9P2067-59">
          <mxGeometry relative="1" as="geometry" />
        </mxCell>
        <mxCell id="xkKsstSFWAPBtp9P2067-67" style="edgeStyle=orthogonalEdgeStyle;rounded=0;orthogonalLoop=1;jettySize=auto;html=1;entryX=0.5;entryY=0;entryDx=0;entryDy=0;startArrow=none;startFill=0;dashed=1;" edge="1" parent="xkKsstSFWAPBtp9P2067-1" source="xkKsstSFWAPBtp9P2067-26" target="xkKsstSFWAPBtp9P2067-65">
          <mxGeometry relative="1" as="geometry">
            <Array as="points">
              <mxPoint x="310" y="265" />
            </Array>
          </mxGeometry>
        </mxCell>
        <mxCell id="xkKsstSFWAPBtp9P2067-78" style="edgeStyle=orthogonalEdgeStyle;rounded=0;orthogonalLoop=1;jettySize=auto;html=1;startArrow=none;startFill=0;" edge="1" parent="1" source="xkKsstSFWAPBtp9P2067-65">
          <mxGeometry relative="1" as="geometry">
            <mxPoint x="1460" y="1040" as="targetPoint" />
          </mxGeometry>
        </mxCell>
      </root>
    </mxGraphModel>
  </diagram>
</mxfile>
